<?xml version="1.0" ?><!DOCTYPE svg  PUBLIC '-//W3C//DTD SVG 1.1//EN'  'http://www.w3.org/Graphics/SVG/1.1/DTD/svg11.dtd'><svg height="8.4666mm" style="shape-rendering:geometricPrecision; text-rendering:geometricPrecision; image-rendering:optimizeQuality; fill-rule:evenodd; clip-rule:evenodd" version="1.1" viewBox="0 0 846.66 846.66" width="8.4666mm" xml:space="preserve" xmlns="http://www.w3.org/2000/svg" xmlns:xlink="http://www.w3.org/1999/xlink"><defs><style type="text/css">
   <![CDATA[
    .fil0 {fill:black;fill-rule:nonzero}
   ]]>
  </style></defs><g id="Layer_x0020_1"><path class="fil0" d="M98.48 101.85l304.14 0 0 -60c0,-27.24 41.42,-27.24 41.42,0l0 60 304.14 0c49.17,0 89.31,40.14 89.31,89.31l0 544.77c0,49.17 -40.14,89.31 -89.31,89.31l-649.7 0c-49.16,0 -89.31,-40.14 -89.31,-89.31l0 -544.77c0,-49.17 40.15,-89.31 89.31,-89.31zm523.66 279.49l0 69.81 100.53 0 0 -69.81 -100.53 0zm0 111.23l0 95.26 100.53 0 0 -95.26 -100.53 0zm0 136.68l0 69.82 100.53 0 0 -69.82 -100.53 0zm-41.41 69.82l0 -69.82 -136.69 0 0 69.82 136.69 0zm0 -111.24l0 -95.26 -136.69 0 0 95.26 136.69 0zm0 -136.68l0 -69.81 -136.69 0 0 69.81 136.69 0zm-314.8 -69.81l0 69.81 136.69 0 0 -69.81 -136.69 0zm0 111.23l0 95.26 136.69 0 0 -95.26 -136.69 0zm0 136.68l0 69.82 136.69 0 0 -69.82 -136.69 0zm-41.41 69.82l0 -69.82 -100.53 0 0 69.82 100.53 0zm0 -111.24l0 -95.26 -100.53 0 0 95.26 100.53 0zm0 -136.68l0 -69.81 -100.53 0 0 69.81 100.53 0zm-121.24 -111.23c213.37,0 426.73,0 640.1,0 11.44,0 20.71,9.27 20.71,20.71 0,119.71 0,239.43 0,359.15 0,11.43 -9.27,20.71 -20.71,20.71 -213.37,0 -426.73,0 -640.1,0 -11.44,0 -20.71,-9.28 -20.71,-20.71 0,-119.72 0,-239.44 0,-359.15 0,-11.44 9.27,-20.71 20.71,-20.71zm340.76 -196.66l0 25.17 27.71 0c27.24,0 27.24,41.42 0,41.42l-96.84 0c-27.24,0 -27.24,-41.42 0,-41.42l27.71 0 0 -25.17 -304.14 0c-26.3,0 -47.89,21.6 -47.89,47.9l0 544.77c0,26.3 21.59,47.9 47.89,47.9l649.7 0c26.3,0 47.89,-21.6 47.89,-47.9l0 -544.77c0,-26.3 -21.59,-47.9 -47.89,-47.9l-304.14 0z"/></g></svg>